# xmcd
#
# Track frame offsets:
# 150
# 14994
# 30360
# 40113
# 55239
# 69114
# 80736
# 93312
# 104304
# 115728
# 128646
# 142062
# 155661
# 165567
#
# Disc length: 2391 seconds
#
#
# Revision: 2
# Processed by: cddbd v1.5.1PL2 Copyright (c) Steve Scherf et al.
# Submitted via: FreeRIP 2.943 
#
DISCID=b509550e
DTITLE=Teodoro e Sampaio - Tudo de Bão
DYEAR=2003
DGENRE=Sertanejo
TTITLE0=Bão tamém
TTITLE1=A solteirona
TTITLE2=Quem tem... tem medo
TTITLE3=O garrafão (Ao vivo)
TTITLE4=Raimunda (Ao vivo)
TTITLE5=Pega pega
TTITLE6=Vírus da paixão
TTITLE7=Cavalo popeye
TTITLE8=Whisky com guaraná
TTITLE9=Madrugada fria
TTITLE10=Vida de cachorro (Ao vivo)
TTITLE11=Meu barraco caiu (Ao vivo)
TTITLE12=Menino sapeca
TTITLE13=A rabada da cunhada
EXTD=YEAR: 2003
EXTT0=
EXTT1=
EXTT2=
EXTT3=
EXTT4=
EXTT5=
EXTT6=
EXTT7=
EXTT8=
EXTT9=
EXTT10=
EXTT11=
EXTT12=
EXTT13=
PLAYORDER=
